<?xml version="1.0" encoding="utf-8"?><svg viewBox="0 0 22 22" xmlns="http://www.w3.org/2000/svg" xmlns:xlink="http://www.w3.org/1999/xlink"><style>:root>svg{display:none}:root>svg:target{display:block}</style><svg fill="none" viewBox="0 0 17 10" id="angle-bottom" xmlns="http://www.w3.org/2000/svg"><path fill-rule="evenodd" clip-rule="evenodd" d="M.293.293a1 1 0 011.414 0L8.5 7.086 15.293.293a1 1 0 111.414 1.414l-7.5 7.5a1 1 0 01-1.414 0l-7.5-7.5a1 1 0 010-1.414z" fill="currentColor"/></svg><svg fill="none" viewBox="0 0 17 10" id="angle-top" xmlns="http://www.w3.org/2000/svg"><path fill-rule="evenodd" clip-rule="evenodd" d="M8.5 0a1 1 0 01.707.293l7.5 7.5a1 1 0 01-1.414 1.414L8.5 2.414 1.707 9.207A1 1 0 01.293 7.793l7.5-7.5A1 1 0 018.5 0z" fill="currentColor"/></svg><svg fill="none" viewBox="0 0 22 22" id="arrow-left" xmlns="http://www.w3.org/2000/svg"><path d="M11.61 19.057a1.333 1.333 0 11-1.886 1.886L.39 11.609a1.333 1.333 0 010-1.885L9.724.39a1.333 1.333 0 011.886 1.885L4.552 9.333H20A1.333 1.333 0 1120 12H4.552l7.058 7.057z" fill="currentColor"/></svg><svg fill="none" viewBox="0 0 22 22" id="arrow-right" xmlns="http://www.w3.org/2000/svg"><path d="M9.724 2.276A1.333 1.333 0 1111.61.391l9.333 9.333c.52.52.52 1.365 0 1.886l-9.334 9.333a1.333 1.333 0 01-1.885-1.886L16.78 12H1.333a1.333 1.333 0 010-2.667h15.448L9.724 2.276z" fill="currentColor"/></svg><svg fill="none" viewBox="0 0 18 13" id="check" xmlns="http://www.w3.org/2000/svg"><path fill-rule="evenodd" clip-rule="evenodd" d="M17.707.293a1 1 0 010 1.414l-11 11a1 1 0 01-1.414 0l-5-5a1 1 0 011.414-1.414L6 10.586 16.293.293a1 1 0 011.414 0z" fill="currentColor"/></svg><svg fill="none" viewBox="0 0 14 14" id="close" xmlns="http://www.w3.org/2000/svg"><path fill-rule="evenodd" clip-rule="evenodd" d="M.293.293a1 1 0 011.414 0L7 5.586 12.293.293a1 1 0 111.414 1.414L8.414 7l5.293 5.293a1 1 0 01-1.414 1.414L7 8.414l-5.293 5.293a1 1 0 01-1.414-1.414L5.586 7 .293 1.707a1 1 0 010-1.414z" fill="currentColor"/></svg><svg fill="none" viewBox="0 0 22 15" id="eye" xmlns="http://www.w3.org/2000/svg"><path d="M11 4.5a3 3 0 110 6 3 3 0 010-6M11 0c5 0 9.27 3.11 11 7.5-1.73 4.39-6 7.5-11 7.5S1.73 11.89 0 7.5C1.73 3.11 6 0 11 0zM2.18 7.5a9.821 9.821 0 0017.64 0 9.821 9.821 0 00-17.64 0z" fill="currentColor"/></svg><svg fill="none" viewBox="0 0 22 20" id="eye-off" xmlns="http://www.w3.org/2000/svg"><path d="M9.587 3.092c.406-.06.825-.092 1.257-.092 5.105 0 8.455 4.505 9.58 6.287.137.215.205.323.243.49.028.125.028.322 0 .447-.038.166-.107.274-.244.492-.3.474-.757 1.141-1.363 1.865M5.563 4.719C3.403 6.185 1.938 8.22 1.265 9.285c-.137.217-.205.325-.244.491a1.173 1.173 0 000 .447c.039.167.107.274.243.49C2.389 12.495 5.739 17 10.844 17c2.055 0 3.826-.73 5.281-1.719M5.563 4.72l.005-.004m-.005.004L1.844 1m3.719 3.719l3.16 3.16m7.41 7.398l-.008.004m0 0l-3.16-3.16m3.16 3.16L19.845 19M8.722 7.879l4.242 4.242M8.724 7.88a3 3 0 104.243 4.243" stroke="currentColor" stroke-width="2" stroke-linecap="round" stroke-linejoin="round"/></svg><svg fill="none" viewBox="0 0 14 2" id="minus" xmlns="http://www.w3.org/2000/svg"><path fill-rule="evenodd" clip-rule="evenodd" d="M0 1a1 1 0 011-1h12a1 1 0 110 2H1a1 1 0 01-1-1z" fill="currentColor"/></svg><svg fill="none" viewBox="0 0 14 14" id="plus" xmlns="http://www.w3.org/2000/svg"><path fill-rule="evenodd" clip-rule="evenodd" d="M7 0a1 1 0 011 1v5h5a1 1 0 110 2H8v5a1 1 0 11-2 0V8H1a1 1 0 010-2h5V1a1 1 0 011-1z" fill="currentColor"/></svg></svg>