<svg xmlns="http://www.w3.org/2000/svg" viewBox="0 0 512 512" width="128" height="128"><path fill="#E04F5F" d="M7.9 256C7.9 119 119 7.9 256 7.9S504.1 119 504.1 256 393 504.1 256 504.1 7.9 393 7.9 256z"/><path fill="#FFF" d="M408.1 206.8 258 131.9c-1.3-.6-2.7-.6-4 0l-150.2 74.9c-1.7.8-2.7 2.4-2.7 4.3v29.6c0 1.6.8 3.1 2.2 4 1.4.9 3.1 1 4.5.3L256 171l148.1 74c.6.3 1.3.5 2 .5.9 0 1.8-.2 2.5-.7 1.4-.9 2.2-2.4 2.2-4V211c0-1.8-1-3.5-2.7-4.2z"/><path fill="#FFF" d="m380.5 245.8-124.5-62-124.5 62v115h69v-88.2H248v88.2h132.5z"/><path fill="#EA4949" d="M263.7 272.6h32v32h-32z"/></svg>